<svg height="511pt" viewBox="0 0 511.99984 511" width="511pt" xmlns="http://www.w3.org/2000/svg"><path d="m358.292969 85.808594c-46.398438-.027344-90.316407 20.96875-119.429688 57.097656v-142.40625h-17.0625v204.058594c-29.34375-4.257813-51.128906-29.382813-51.1875-59.035156 0-2.261719-.898437-4.429688-2.5-6.03125l-7.496093-7.496094c-9.277344-9.234375-23.027344-12.332032-35.371094-7.96875l-14.414063-116.019532-16.925781 2.097657 15.507812 124.859375-81.324218 81.304687-25.59375 25.59375c-3.328125 3.332031-3.328125 8.730469 0 12.0625l19.5625 19.5625-19.5625 19.558594c-3.328125 3.332031-3.328125 8.730469 0 12.0625l25.59375 25.59375c3.332031 3.328125 8.730468 3.328125 12.0625 0l19.5625-19.5625 73.246094 73.246094-19.5625 19.5625c-3.332032 3.332031-3.332032 8.730469 0 12.0625l25.59375 25.589843c3.328124 3.332032 8.730468 3.332032 12.0625 0l19.558593-19.558593 13.53125 13.527343-19.5625 19.5625c-3.328125 3.332032-3.328125 8.730469 0 12.0625l25.59375 25.59375c3.332031 3.328126 8.730469 3.328126 12.0625 0l19.5625-19.5625 36.621094 36.621094c3.332031 3.332032 8.730469 3.332032 12.0625 0l25.59375-25.589844 15.789063-15.792968c13.5625-13.53125 16.152343-34.570313 6.269531-50.988282l-22.886719-38.148437c77.300781 34.882813 168.242188.492187 203.121094-76.808594 34.882812-77.300781.492187-168.242187-76.808594-203.121093-19.882812-8.972657-41.453125-13.605469-63.269531-13.589844zm128.089843 106.867187-71.136718 19.390625-48.421875-35.148437v-73.613281c54.050781 3.441406 100.957031 38.503906 119.558593 89.371093zm-100.140624 85.160157h-55.894532l-17.269531-53.171876 45.214844-32.851562 45.214843 32.851562zm-130.523438-40.265626c-.230469-1.046874-.652344-2.046874-1.246094-2.941406l-14.375-21.558594 56.226563 15.355469 18.28125 56.246094-38.386719 48.625zm94.042969-134.410156v73.757813l-48.421875 35.148437-62.476563-17.0625v-21.660156c22.527344-40.824219 64.359375-67.300781 110.898438-70.183594zm-268.722657 84.285156 23.035157 23.03125c19.558593 19.671876 20.554687 51.125 2.277343 71.992188l-60.167968-60.167969zm183.414063 304.3125-36.621094-36.625c-3.332031-3.328124-8.730469-3.328124-12.0625 0l-19.5625 19.5625-13.527343-13.53125 19.558593-19.558593c3.332031-3.332031 3.332031-8.734375 0-12.0625l-25.589843-25.59375c-3.332032-3.332031-8.734376-3.332031-12.0625 0l-19.5625 19.5625-13.53125-13.53125 19.5625-19.5625c3.332031-3.328125 3.332031-8.730469 0-12.058594l-85.308594-85.3125c-3.332032-3.328125-8.730469-3.328125-12.0625 0l-19.5625 19.5625-13.527344-13.53125 19.558594-19.558594c3.332031-3.332031 3.332031-8.734375 0-12.0625l-19.558594-19.5625 13.527344-13.53125 243.863281 243.863281zm35.351563-35.351562-9.757813 9.757812-171.46875-171.46875c24.929687-27.628906 23.871094-69.9375-2.414063-96.28125l-23.035156-23.03125 31.324219-31.324218c6.664063-6.660156 17.464844-6.660156 24.125 0l5.121094 5.117187c1.894531 39.140625 32.921875 70.59375 72.035156 73.015625l13.65625 20.585938 25.25 117.84375c.203125.902344.550781 1.769531 1.03125 2.558594l37.835937 63.070312c5.847657 9.707031 4.320313 22.152344-3.703124 30.15625zm-17.199219-103.582031 45.675781-57.941407h59.871094l43.386718 59.476563c-45.507812 29.1875-103.996093 28.585937-148.890624-1.535156zm162.738281-8.445313-43.441406-59.539062 18.34375-56.429688 71.027344-19.398437c11.65625 50.195312-6.15625 102.660156-45.964844 135.382812zm0 0"/></svg>